<?xml version="1.0" encoding="UTF-8" standalone="no"?><!DOCTYPE svg PUBLIC "-//W3C//DTD SVG 1.1//EN" "http://www.w3.org/Graphics/SVG/1.1/DTD/svg11.dtd"><svg width="100%" height="100%" viewBox="0 0 127 52" version="1.1" xmlns="http://www.w3.org/2000/svg" xmlns:xlink="http://www.w3.org/1999/xlink" xml:space="preserve" xmlns:serif="http://www.serif.com/" style="fill-rule:evenodd;clip-rule:evenodd;stroke-linecap:round;stroke-linejoin:round;stroke-miterlimit:1.5;"><path d="M121,1c1.326,-0 2.598,0.527 3.536,1.464c0.937,0.938 1.464,2.21 1.464,3.536l0,40c-0,1.326 -0.527,2.598 -1.464,3.536c-0.938,0.937 -2.21,1.464 -3.536,1.464l-115,0c-1.326,0 -2.598,-0.527 -3.536,-1.464c-0.937,-0.938 -1.464,-2.21 -1.464,-3.536l0,-40c0,-1.326 0.527,-2.598 1.464,-3.536c0.938,-0.937 2.21,-1.464 3.536,-1.464l115,-0Z" style="fill:#7fffe0;stroke:#fff;stroke-width:2px;"/><g transform="matrix(20,0,0,20,109.623,33.168)"></g><text x="17.357px" y="33.168px" style="font-family:'LuckiestGuy-Regular', 'Luckiest Guy';font-size:20px;fill:#531a82;">C<tspan x="27.533px " y="33.168px ">O</tspan>NTR<tspan x="77.211px " y="33.168px ">O</tspan>LS</text></svg>