<?xml version="1.0" encoding="UTF-8" standalone="no"?><!DOCTYPE svg PUBLIC "-//W3C//DTD SVG 1.1//EN" "http://www.w3.org/Graphics/SVG/1.1/DTD/svg11.dtd"><svg width="100%" height="100%" viewBox="0 0 127 52" version="1.1" xmlns="http://www.w3.org/2000/svg" xmlns:xlink="http://www.w3.org/1999/xlink" xml:space="preserve" xmlns:serif="http://www.serif.com/" style="fill-rule:evenodd;clip-rule:evenodd;stroke-linecap:round;stroke-linejoin:round;stroke-miterlimit:1.5;"><path d="M121,1c1.326,0 2.598,0.527 3.536,1.464c0.937,0.938 1.464,2.21 1.464,3.536l0,40c0,1.326 -0.527,2.598 -1.464,3.536c-0.938,0.937 -2.21,1.464 -3.536,1.464l-115,0c-1.326,0 -2.598,-0.527 -3.536,-1.464c-0.937,-0.938 -1.464,-2.21 -1.464,-3.536l0,-40c0,-1.326 0.527,-2.598 1.464,-3.536c0.938,-0.937 2.21,-1.464 3.536,-1.464l115,0Z" style="fill:#7fffe0;stroke:#fff;stroke-width:2px;"/><g><path d="M27.533,19.438l-0.547,4.121c-0.189,-0.052 -0.378,-0.088 -0.567,-0.108c-0.188,-0.019 -0.377,-0.029 -0.566,-0.029c-0.482,-0 -0.941,0.065 -1.377,0.195c-0.436,0.124 -0.823,0.316 -1.162,0.576c-0.332,0.261 -0.599,0.586 -0.801,0.977c-0.195,0.391 -0.293,0.85 -0.293,1.377c0,0.338 0.052,0.631 0.157,0.879c0.11,0.247 0.263,0.452 0.459,0.615c0.195,0.163 0.426,0.283 0.693,0.361c0.267,0.079 0.56,0.118 0.879,0.118c0.241,-0 0.491,-0.026 0.752,-0.079c0.26,-0.052 0.517,-0.12 0.771,-0.205c0.254,-0.084 0.502,-0.182 0.742,-0.293c0.241,-0.11 0.463,-0.224 0.664,-0.341l-0.39,4.589c-0.254,0.131 -0.531,0.248 -0.83,0.352c-0.293,0.098 -0.596,0.186 -0.908,0.264c-0.313,0.071 -0.625,0.127 -0.938,0.166c-0.312,0.039 -0.612,0.058 -0.898,0.058c-0.827,0 -1.599,-0.153 -2.315,-0.459c-0.716,-0.306 -1.338,-0.726 -1.865,-1.259c-0.527,-0.534 -0.944,-1.163 -1.25,-1.885c-0.3,-0.729 -0.449,-1.514 -0.449,-2.354c-0,-1.113 0.159,-2.161 0.478,-3.144c0.319,-0.99 0.788,-1.856 1.406,-2.598c0.619,-0.742 1.384,-1.328 2.295,-1.758c0.918,-0.429 1.973,-0.644 3.164,-0.644c0.45,-0 0.909,0.036 1.377,0.107c0.476,0.072 0.915,0.205 1.319,0.401Z" style="fill:#531a82;fill-rule:nonzero;"/><g><path d="M40.101,26.273c0,0.593 -0.068,1.166 -0.205,1.719c-0.136,0.547 -0.335,1.061 -0.595,1.543c-0.254,0.482 -0.567,0.925 -0.938,1.328c-0.365,0.397 -0.778,0.739 -1.24,1.026c-0.456,0.286 -0.954,0.511 -1.494,0.674c-0.541,0.156 -1.114,0.234 -1.719,0.234c-0.586,-0 -1.146,-0.075 -1.68,-0.225c-0.527,-0.149 -1.022,-0.358 -1.484,-0.625c-0.462,-0.273 -0.882,-0.599 -1.26,-0.976c-0.371,-0.384 -0.69,-0.808 -0.957,-1.27c-0.26,-0.469 -0.465,-0.97 -0.615,-1.504c-0.143,-0.534 -0.215,-1.09 -0.215,-1.67c0,-0.566 0.068,-1.119 0.205,-1.66c0.137,-0.547 0.332,-1.061 0.586,-1.543c0.26,-0.482 0.573,-0.924 0.938,-1.328c0.364,-0.404 0.771,-0.752 1.22,-1.045c0.456,-0.293 0.948,-0.521 1.475,-0.683c0.527,-0.163 1.084,-0.245 1.67,-0.245c0.944,0 1.803,0.147 2.578,0.44c0.781,0.293 1.445,0.713 1.992,1.26c0.553,0.54 0.98,1.198 1.279,1.972c0.306,0.769 0.459,1.628 0.459,2.578Zm-4.336,0.254c0,-0.28 -0.042,-0.55 -0.127,-0.81c-0.078,-0.267 -0.195,-0.501 -0.351,-0.703c-0.156,-0.209 -0.352,-0.375 -0.586,-0.498c-0.228,-0.131 -0.492,-0.196 -0.791,-0.196c-0.306,0 -0.579,0.056 -0.82,0.166c-0.241,0.111 -0.45,0.264 -0.625,0.459c-0.17,0.189 -0.3,0.414 -0.391,0.674c-0.091,0.254 -0.137,0.524 -0.137,0.811c0,0.273 0.039,0.547 0.117,0.82c0.079,0.273 0.196,0.521 0.352,0.742c0.156,0.222 0.348,0.401 0.576,0.537c0.235,0.137 0.505,0.205 0.811,0.205c0.306,0 0.579,-0.058 0.82,-0.175c0.247,-0.124 0.456,-0.287 0.625,-0.489c0.169,-0.208 0.3,-0.446 0.391,-0.713c0.091,-0.266 0.136,-0.543 0.136,-0.83Z" style="fill:#531a82;fill-rule:nonzero;"/><path d="M54.066,19.164l-0.703,13.242l-5.117,0.469l-2.734,-7.09l-0.43,7.227l-4.395,-0l0.352,-13.848l4.883,-0.234l3.379,7.031l0.156,-6.641l4.609,-0.156Z" style="fill:#531a82;fill-rule:nonzero;"/><path d="M65.179,19.203l-0.097,4.141l-2.91,0.117l-0.743,9.258l-4.121,0.215l0.02,-9.258l-2.91,0.156l0.117,-4.609l10.644,-0.02Z" style="fill:#531a82;fill-rule:nonzero;"/><path d="M77.162,23.754c-0,0.508 -0.046,0.97 -0.137,1.387c-0.084,0.41 -0.221,0.787 -0.41,1.132c-0.189,0.346 -0.433,0.665 -0.732,0.957c-0.3,0.293 -0.661,0.573 -1.084,0.84l2.324,4.141l-4.395,0.859l-1.504,-4.16l-1.211,0.039l-0.175,4.063l-4.2,-0c0.033,-1.485 0.062,-2.962 0.088,-4.434c0.033,-1.471 0.069,-2.949 0.108,-4.433c0.013,-0.749 0.026,-1.491 0.039,-2.227c0.013,-0.736 0.039,-1.478 0.078,-2.227c0.456,-0.169 0.905,-0.309 1.348,-0.419c0.442,-0.111 0.885,-0.196 1.328,-0.254c0.449,-0.065 0.901,-0.108 1.357,-0.127c0.462,-0.026 0.934,-0.039 1.416,-0.039c0.742,-0 1.459,0.104 2.149,0.312c0.696,0.202 1.311,0.508 1.845,0.918c0.534,0.41 0.961,0.921 1.28,1.533c0.325,0.612 0.488,1.325 0.488,2.139Zm-4.375,0.312c-0,-0.273 -0.039,-0.524 -0.117,-0.752c-0.072,-0.227 -0.183,-0.423 -0.332,-0.585c-0.144,-0.17 -0.326,-0.3 -0.547,-0.391c-0.215,-0.098 -0.469,-0.147 -0.762,-0.147c-0.13,0 -0.257,0.01 -0.381,0.03c-0.123,0.013 -0.244,0.036 -0.361,0.068l-0.156,3.633l0.234,-0c0.28,-0 0.563,-0.036 0.85,-0.108c0.293,-0.071 0.553,-0.182 0.781,-0.332c0.234,-0.149 0.423,-0.341 0.566,-0.576c0.15,-0.234 0.225,-0.514 0.225,-0.84Z" style="fill:#531a82;fill-rule:nonzero;"/></g><g><path d="M89.779,26.273c0,0.593 -0.068,1.166 -0.205,1.719c-0.136,0.547 -0.335,1.061 -0.595,1.543c-0.254,0.482 -0.567,0.925 -0.938,1.328c-0.365,0.397 -0.778,0.739 -1.24,1.026c-0.456,0.286 -0.954,0.511 -1.494,0.674c-0.541,0.156 -1.114,0.234 -1.719,0.234c-0.586,-0 -1.146,-0.075 -1.68,-0.225c-0.527,-0.149 -1.022,-0.358 -1.484,-0.625c-0.462,-0.273 -0.882,-0.599 -1.26,-0.976c-0.371,-0.384 -0.69,-0.808 -0.957,-1.27c-0.26,-0.469 -0.465,-0.97 -0.615,-1.504c-0.143,-0.534 -0.215,-1.09 -0.215,-1.67c0,-0.566 0.068,-1.119 0.205,-1.66c0.137,-0.547 0.332,-1.061 0.586,-1.543c0.26,-0.482 0.573,-0.924 0.938,-1.328c0.364,-0.404 0.771,-0.752 1.22,-1.045c0.456,-0.293 0.947,-0.521 1.475,-0.683c0.527,-0.163 1.084,-0.245 1.67,-0.245c0.944,0 1.803,0.147 2.578,0.44c0.781,0.293 1.445,0.713 1.992,1.26c0.553,0.54 0.98,1.198 1.279,1.972c0.306,0.769 0.459,1.628 0.459,2.578Zm-4.336,0.254c0,-0.28 -0.042,-0.55 -0.127,-0.81c-0.078,-0.267 -0.195,-0.501 -0.351,-0.703c-0.156,-0.209 -0.352,-0.375 -0.586,-0.498c-0.228,-0.131 -0.492,-0.196 -0.791,-0.196c-0.306,0 -0.579,0.056 -0.82,0.166c-0.241,0.111 -0.45,0.264 -0.625,0.459c-0.17,0.189 -0.3,0.414 -0.391,0.674c-0.091,0.254 -0.137,0.524 -0.137,0.811c0,0.273 0.039,0.547 0.117,0.82c0.079,0.273 0.196,0.521 0.352,0.742c0.156,0.222 0.348,0.401 0.576,0.537c0.235,0.137 0.505,0.205 0.811,0.205c0.306,0 0.579,-0.058 0.82,-0.175c0.247,-0.124 0.456,-0.287 0.625,-0.489c0.169,-0.208 0.3,-0.446 0.391,-0.713c0.091,-0.266 0.136,-0.543 0.136,-0.83Z" style="fill:#531a82;fill-rule:nonzero;"/><path d="M99.047,27.602l-0.41,4.336l-8.223,0.644c0.039,-2.272 0.082,-4.531 0.127,-6.777c0.052,-2.246 0.114,-4.505 0.186,-6.778l5.078,0c-0.15,1.426 -0.293,2.852 -0.43,4.278c-0.137,1.419 -0.234,2.851 -0.293,4.297c0.306,0.013 0.609,0.019 0.908,0.019l0.909,0c0.364,0 0.722,-0.003 1.074,-0.01c0.351,-0.006 0.709,-0.009 1.074,-0.009Z" style="fill:#531a82;fill-rule:nonzero;"/><path d="M109.506,27.973c-0,0.892 -0.156,1.673 -0.469,2.343c-0.306,0.665 -0.729,1.218 -1.269,1.661c-0.534,0.442 -1.162,0.774 -1.885,0.996c-0.716,0.221 -1.488,0.332 -2.315,0.332c-0.319,-0 -0.67,-0.043 -1.054,-0.127c-0.378,-0.085 -0.762,-0.189 -1.153,-0.313c-0.39,-0.13 -0.768,-0.267 -1.132,-0.41c-0.358,-0.15 -0.678,-0.29 -0.957,-0.42l0.429,-4.023c0.554,0.332 1.166,0.586 1.836,0.761c0.677,0.17 1.341,0.254 1.992,0.254c0.124,0 0.274,-0.003 0.45,-0.009c0.175,-0.013 0.341,-0.043 0.498,-0.088c0.162,-0.052 0.299,-0.127 0.41,-0.225c0.11,-0.098 0.166,-0.238 0.166,-0.42c-0,-0.124 -0.039,-0.228 -0.117,-0.312c-0.079,-0.091 -0.179,-0.163 -0.303,-0.215c-0.124,-0.059 -0.264,-0.101 -0.42,-0.127c-0.156,-0.033 -0.309,-0.055 -0.459,-0.068c-0.15,-0.013 -0.29,-0.02 -0.42,-0.02l-0.312,0c-0.56,0 -1.071,-0.098 -1.534,-0.293c-0.455,-0.195 -0.849,-0.465 -1.181,-0.811c-0.326,-0.351 -0.58,-0.764 -0.762,-1.24c-0.182,-0.482 -0.273,-1.002 -0.273,-1.562c-0,-0.768 0.153,-1.455 0.459,-2.061c0.312,-0.612 0.725,-1.129 1.24,-1.553c0.521,-0.429 1.116,-0.758 1.787,-0.986c0.67,-0.228 1.364,-0.342 2.08,-0.342c0.319,0 0.648,0.013 0.986,0.039c0.339,0.02 0.674,0.059 1.006,0.118c0.339,0.058 0.667,0.133 0.986,0.224c0.319,0.091 0.622,0.205 0.909,0.342l-0.371,3.965c-0.443,-0.15 -0.909,-0.274 -1.397,-0.371c-0.482,-0.104 -0.954,-0.156 -1.416,-0.156c-0.085,-0 -0.195,0.003 -0.332,0.009c-0.13,0 -0.27,0.01 -0.42,0.03c-0.143,0.013 -0.29,0.035 -0.439,0.068c-0.15,0.032 -0.284,0.078 -0.401,0.137c-0.117,0.052 -0.211,0.123 -0.283,0.214c-0.072,0.092 -0.104,0.199 -0.098,0.323c0.007,0.143 0.059,0.26 0.157,0.351c0.104,0.085 0.234,0.153 0.39,0.205c0.163,0.046 0.339,0.079 0.528,0.098c0.195,0.02 0.387,0.033 0.576,0.039l0.527,0c0.163,-0.006 0.296,-0.003 0.401,0.01c0.52,0.032 0.989,0.143 1.406,0.332c0.416,0.189 0.768,0.439 1.054,0.752c0.293,0.312 0.515,0.687 0.665,1.123c0.156,0.43 0.234,0.905 0.234,1.426Z" style="fill:#531a82;fill-rule:nonzero;"/></g></g></svg>