<?xml version="1.0" encoding="UTF-8" standalone="no"?><!DOCTYPE svg PUBLIC "-//W3C//DTD SVG 1.1//EN" "http://www.w3.org/Graphics/SVG/1.1/DTD/svg11.dtd"><svg width="100%" height="100%" viewBox="0 0 26 26" version="1.1" xmlns="http://www.w3.org/2000/svg" xmlns:xlink="http://www.w3.org/1999/xlink" xml:space="preserve" xmlns:serif="http://www.serif.com/" style="fill-rule:evenodd;clip-rule:evenodd;stroke-linecap:round;stroke-linejoin:round;stroke-miterlimit:1.5;"><g><path d="M20.261,0.257c1.325,-0 2.596,0.526 3.533,1.463c0.937,0.937 1.463,2.208 1.463,3.533l-0,15.008c-0,1.325 -0.526,2.596 -1.463,3.533c-0.937,0.937 -2.208,1.463 -3.533,1.463l-15.008,-0c-1.325,-0 -2.596,-0.526 -3.533,-1.463c-0.937,-0.937 -1.463,-2.208 -1.463,-3.533l-0,-15.008c-0,-1.325 0.526,-2.596 1.463,-3.533c0.937,-0.937 2.208,-1.463 3.533,-1.463l15.008,-0Z" style="fill:#7fffe0;stroke:#fff;stroke-width:0.51px;"/><path d="M17.767,12.071c-0,0.821 -0.106,1.562 -0.317,2.224c-0.211,0.656 -0.507,1.242 -0.887,1.758c-0.375,0.51 -0.824,0.949 -1.345,1.318c-0.522,0.369 -1.093,0.674 -1.714,0.914c-0.621,0.235 -1.283,0.41 -1.986,0.528c-0.698,0.111 -1.415,0.167 -2.154,0.167c-0.275,-0 -0.545,-0.006 -0.808,-0.018c-0.264,-0.018 -0.533,-0.041 -0.809,-0.07l0.246,-11.795c0.645,-0.205 1.307,-0.349 1.987,-0.431c0.685,-0.088 1.365,-0.132 2.039,-0.132c0.838,0 1.608,0.126 2.311,0.378c0.703,0.252 1.31,0.615 1.82,1.09c0.509,0.475 0.905,1.055 1.186,1.74c0.287,0.686 0.431,1.462 0.431,2.329Zm-3.604,0.563c0.006,-0.317 -0.029,-0.621 -0.105,-0.914c-0.071,-0.293 -0.191,-0.551 -0.361,-0.774c-0.164,-0.228 -0.375,-0.41 -0.632,-0.545c-0.258,-0.14 -0.566,-0.216 -0.923,-0.228l-0.352,5.449c0.352,-0.053 0.671,-0.167 0.958,-0.343c0.287,-0.181 0.533,-0.401 0.738,-0.659c0.211,-0.263 0.372,-0.553 0.484,-0.87c0.117,-0.322 0.181,-0.653 0.193,-0.993l0,-0.123Z" style="fill:#531a82;fill-rule:nonzero;"/></g></svg>