<?xml version="1.0" encoding="UTF-8" standalone="no"?><!DOCTYPE svg PUBLIC "-//W3C//DTD SVG 1.1//EN" "http://www.w3.org/Graphics/SVG/1.1/DTD/svg11.dtd"><svg width="100%" height="100%" viewBox="0 0 25 25" version="1.1" xmlns="http://www.w3.org/2000/svg" xmlns:xlink="http://www.w3.org/1999/xlink" xml:space="preserve" xmlns:serif="http://www.serif.com/" style="fill-rule:evenodd;clip-rule:evenodd;stroke-linejoin:round;stroke-miterlimit:2;"><path d="M5.146,0.5l14.708,-0c1.232,-0 2.414,0.489 3.286,1.36c0.871,0.872 1.36,2.054 1.36,3.286l0,14.708c0,1.232 -0.489,2.414 -1.36,3.286c-0.872,0.871 -2.054,1.36 -3.286,1.36l-14.708,0c-1.232,0 -2.414,-0.489 -3.286,-1.36c-0.871,-0.872 -1.36,-2.054 -1.36,-3.286l-0,-14.708c-0,-1.232 0.489,-2.414 1.36,-3.286c0.872,-0.871 2.054,-1.36 3.286,-1.36Z" style="fill:#7fffe0;"/><path d="M5.146,0l14.708,0c1.365,0 2.674,0.542 3.639,1.507c0.965,0.965 1.507,2.274 1.507,3.639l0,14.708c0,1.365 -0.542,2.674 -1.507,3.639c-0.965,0.965 -2.274,1.507 -3.639,1.507l-14.708,0c-1.365,0 -2.674,-0.542 -3.639,-1.507c-0.965,-0.965 -1.507,-2.274 -1.507,-3.639l0,-14.708c0,-1.365 0.542,-2.674 1.507,-3.639c0.965,-0.965 2.274,-1.507 3.639,-1.507Zm0,0.5c-1.232,-0 -2.414,0.489 -3.286,1.36c-0.871,0.872 -1.36,2.054 -1.36,3.286l-0,14.708c-0,1.232 0.489,2.414 1.36,3.286c0.872,0.871 2.054,1.36 3.286,1.36l14.708,0c1.232,0 2.414,-0.489 3.286,-1.36c0.871,-0.872 1.36,-2.054 1.36,-3.286l0,-14.708c0,-1.232 -0.489,-2.414 -1.36,-3.286c-0.872,-0.871 -2.054,-1.36 -3.286,-1.36l-14.708,-0Z" style="fill:#fff;"/><path d="M15.987,12.948l4.072,0c0.402,0 0.766,0.244 0.92,0.616c0.154,0.372 0.069,0.8 -0.216,1.085c-2.218,2.219 -5.999,6 -7.559,7.559c-0.186,0.187 -0.44,0.292 -0.704,0.292c-0.264,0 -0.518,-0.105 -0.704,-0.292c-1.56,-1.559 -5.341,-5.34 -7.559,-7.559c-0.285,-0.285 -0.37,-0.713 -0.216,-1.085c0.154,-0.372 0.518,-0.616 0.92,-0.616l4.072,0l-0,-9.452c-0,-0.264 0.104,-0.517 0.292,-0.704c0.186,-0.186 0.44,-0.292 0.704,-0.292l4.982,-0c0.264,-0 0.518,0.106 0.704,0.292c0.188,0.187 0.292,0.44 0.292,0.704l0,9.452Z" style="fill:#531a82;"/></svg>