<?xml version="1.0" encoding="UTF-8" standalone="no"?><!DOCTYPE svg PUBLIC "-//W3C//DTD SVG 1.1//EN" "http://www.w3.org/Graphics/SVG/1.1/DTD/svg11.dtd"><svg width="100%" height="100%" viewBox="0 0 26 26" version="1.1" xmlns="http://www.w3.org/2000/svg" xmlns:xlink="http://www.w3.org/1999/xlink" xml:space="preserve" xmlns:serif="http://www.serif.com/" style="fill-rule:evenodd;clip-rule:evenodd;stroke-linecap:round;stroke-linejoin:round;stroke-miterlimit:1.5;"><g><path d="M20.261,0.257c1.325,-0 2.596,0.526 3.533,1.463c0.937,0.937 1.463,2.208 1.463,3.533l-0,15.008c-0,1.325 -0.526,2.596 -1.463,3.533c-0.937,0.937 -2.208,1.463 -3.533,1.463l-15.008,-0c-1.325,-0 -2.596,-0.526 -3.533,-1.463c-0.937,-0.937 -1.463,-2.208 -1.463,-3.533l-0,-15.008c-0,-1.325 0.526,-2.596 1.463,-3.533c0.937,-0.937 2.208,-1.463 3.533,-1.463l15.008,-0Z" style="fill:#7fffe0;stroke:#fff;stroke-width:0.51px;"/><path d="M16.949,6.42c-0.035,0.551 -0.067,1.096 -0.096,1.635c-0.03,0.539 -0.068,1.084 -0.115,1.635l-3.726,0.193l-0.088,1.107l2.619,0l-0.193,2.725l-2.637,0.088l-0.088,1.283l3.727,0c-0.035,0.645 -0.074,1.286 -0.115,1.925c-0.035,0.633 -0.067,1.268 -0.096,1.907l-7.576,0.176l0.281,-12.674l8.103,0Z" style="fill:#531a82;fill-rule:nonzero;"/></g></svg>