<?xml version="1.0" encoding="UTF-8" standalone="no"?><!DOCTYPE svg PUBLIC "-//W3C//DTD SVG 1.1//EN" "http://www.w3.org/Graphics/SVG/1.1/DTD/svg11.dtd"><svg width="100%" height="100%" viewBox="0 0 127 52" version="1.1" xmlns="http://www.w3.org/2000/svg" xmlns:xlink="http://www.w3.org/1999/xlink" xml:space="preserve" xmlns:serif="http://www.serif.com/" style="fill-rule:evenodd;clip-rule:evenodd;stroke-linecap:round;stroke-linejoin:round;stroke-miterlimit:1.5;"><path d="M121,1c1.326,0 2.598,0.527 3.536,1.464c0.937,0.938 1.464,2.21 1.464,3.536l0,40c0,1.326 -0.527,2.598 -1.464,3.536c-0.938,0.937 -2.21,1.464 -3.536,1.464l-115,0c-1.326,0 -2.598,-0.527 -3.536,-1.464c-0.937,-0.938 -1.464,-2.21 -1.464,-3.536l0,-40c0,-1.326 0.527,-2.598 1.464,-3.536c0.938,-0.937 2.21,-1.464 3.536,-1.464l115,0Z" style="fill:#7fffe0;stroke:#fff;stroke-width:2px;"/><g><g><path d="M30.121,19.418l-1.074,13.301l-4.121,0.215l-0,-13.243l5.195,-0.273Z" style="fill:#531a82;fill-rule:nonzero;"/><path d="M47.865,26.547c0,0.931 -0.029,1.859 -0.088,2.783c-0.058,0.925 -0.127,1.852 -0.205,2.783l-5.019,0.235c0.149,-1.133 0.283,-2.266 0.4,-3.399c0.124,-1.139 0.186,-2.278 0.186,-3.418c-0,-0.071 -0.004,-0.195 -0.01,-0.371c-0.007,-0.182 -0.02,-0.387 -0.039,-0.615c-0.013,-0.228 -0.036,-0.462 -0.069,-0.703c-0.026,-0.248 -0.065,-0.472 -0.117,-0.674c-0.045,-0.208 -0.104,-0.378 -0.175,-0.508c-0.072,-0.13 -0.157,-0.195 -0.254,-0.195c-0.228,-0 -0.407,0.088 -0.538,0.264c-0.13,0.169 -0.227,0.374 -0.292,0.615c-0.059,0.241 -0.095,0.488 -0.108,0.742c-0.013,0.247 -0.019,0.449 -0.019,0.605c-0,0.274 0.006,0.547 0.019,0.821c0.013,0.273 0.02,0.553 0.02,0.84c-0,1.009 -0.026,2.015 -0.078,3.017c-0.046,1.003 -0.105,2.009 -0.176,3.018l-4.629,0.176c0.15,-1.133 0.28,-2.263 0.39,-3.389c0.118,-1.133 0.176,-2.269 0.176,-3.408c0,-0.072 -0.003,-0.202 -0.01,-0.391c-0.006,-0.189 -0.019,-0.4 -0.039,-0.635c-0.013,-0.234 -0.035,-0.478 -0.068,-0.732c-0.033,-0.254 -0.075,-0.485 -0.127,-0.694c-0.045,-0.214 -0.104,-0.39 -0.176,-0.527c-0.071,-0.137 -0.159,-0.205 -0.263,-0.205c-0.163,0 -0.3,0.065 -0.411,0.195c-0.11,0.124 -0.201,0.287 -0.273,0.489c-0.065,0.201 -0.117,0.426 -0.156,0.673c-0.033,0.241 -0.059,0.479 -0.078,0.713c-0.013,0.235 -0.023,0.453 -0.03,0.655c0,0.195 -0.003,0.341 -0.009,0.439l-0.215,7.129l-4.922,0c0.104,-1.1 0.208,-2.204 0.312,-3.311c0.111,-1.106 0.205,-2.21 0.284,-3.31c0.084,-1.107 0.153,-2.214 0.205,-3.32c0.052,-1.107 0.078,-2.214 0.078,-3.321l4.648,-0.195l-0.019,1.133c0.143,-0.182 0.306,-0.365 0.488,-0.547c0.182,-0.189 0.374,-0.355 0.576,-0.498c0.208,-0.15 0.427,-0.27 0.654,-0.361c0.235,-0.092 0.476,-0.137 0.723,-0.137c0.319,-0 0.606,0.026 0.859,0.078c0.254,0.046 0.482,0.127 0.684,0.244c0.208,0.117 0.391,0.28 0.547,0.488c0.156,0.202 0.293,0.459 0.41,0.772c0.208,-0.228 0.417,-0.44 0.625,-0.635c0.215,-0.195 0.44,-0.361 0.674,-0.498c0.234,-0.143 0.488,-0.254 0.762,-0.332c0.273,-0.078 0.576,-0.117 0.908,-0.117c0.631,-0 1.168,0.124 1.611,0.371c0.443,0.241 0.811,0.563 1.104,0.967c0.299,0.403 0.53,0.866 0.693,1.386c0.169,0.521 0.296,1.062 0.381,1.622c0.085,0.559 0.137,1.116 0.156,1.669c0.026,0.554 0.039,1.062 0.039,1.524Z" style="fill:#531a82;fill-rule:nonzero;"/><path d="M60.131,24.164c-0,0.632 -0.095,1.191 -0.283,1.68c-0.189,0.488 -0.45,0.918 -0.782,1.289c-0.325,0.364 -0.709,0.674 -1.152,0.928c-0.443,0.247 -0.918,0.452 -1.426,0.615c-0.501,0.156 -1.022,0.273 -1.562,0.351c-0.541,0.072 -1.071,0.111 -1.592,0.118l-0,4.16l-4.551,-0l0,-2.168c0.007,-0.703 0.01,-1.4 0.01,-2.09c0.006,-0.697 0.01,-1.397 0.01,-2.1c0.006,-0.703 0.013,-1.429 0.019,-2.177c0.013,-0.795 0.017,-1.589 0.01,-2.383c-0.006,-0.795 0.01,-1.595 0.049,-2.403c0.833,-0.247 1.667,-0.433 2.5,-0.556c0.833,-0.124 1.693,-0.186 2.578,-0.186c0.501,0 1.003,0.043 1.504,0.127c0.501,0.078 0.98,0.205 1.435,0.381c0.463,0.176 0.889,0.397 1.28,0.664c0.397,0.261 0.739,0.573 1.025,0.938c0.287,0.364 0.511,0.781 0.674,1.25c0.169,0.468 0.254,0.989 0.254,1.562Zm-4.336,0.332c-0,-0.423 -0.13,-0.752 -0.391,-0.986c-0.254,-0.241 -0.586,-0.362 -0.996,-0.362c-0.137,0 -0.28,0.013 -0.429,0.04c-0.144,0.019 -0.28,0.045 -0.411,0.078l-0.117,2.851c0.091,0.013 0.179,0.02 0.264,0.02l0.264,-0c0.234,-0 0.459,-0.039 0.673,-0.117c0.222,-0.079 0.417,-0.189 0.586,-0.332c0.17,-0.15 0.303,-0.323 0.401,-0.518c0.104,-0.202 0.156,-0.426 0.156,-0.674Z" style="fill:#531a82;fill-rule:nonzero;"/><path d="M72.133,23.754c-0,0.508 -0.046,0.97 -0.137,1.387c-0.085,0.41 -0.221,0.787 -0.41,1.132c-0.189,0.346 -0.433,0.665 -0.732,0.957c-0.3,0.293 -0.661,0.573 -1.084,0.84l2.324,4.141l-4.395,0.859l-1.504,-4.16l-1.211,0.039l-0.175,4.063l-4.2,-0c0.033,-1.485 0.062,-2.962 0.088,-4.434c0.033,-1.471 0.069,-2.949 0.108,-4.433c0.013,-0.749 0.026,-1.491 0.039,-2.227c0.013,-0.736 0.039,-1.478 0.078,-2.227c0.456,-0.169 0.905,-0.309 1.348,-0.419c0.442,-0.111 0.885,-0.196 1.328,-0.254c0.449,-0.065 0.901,-0.108 1.357,-0.127c0.462,-0.026 0.934,-0.039 1.416,-0.039c0.742,-0 1.458,0.104 2.149,0.312c0.696,0.202 1.311,0.508 1.845,0.918c0.534,0.41 0.961,0.921 1.28,1.533c0.325,0.612 0.488,1.325 0.488,2.139Zm-4.375,0.312c-0,-0.273 -0.039,-0.524 -0.117,-0.752c-0.072,-0.227 -0.183,-0.423 -0.332,-0.585c-0.144,-0.17 -0.326,-0.3 -0.547,-0.391c-0.215,-0.098 -0.469,-0.147 -0.762,-0.147c-0.13,0 -0.257,0.01 -0.381,0.03c-0.124,0.013 -0.244,0.036 -0.361,0.068l-0.156,3.633l0.234,-0c0.28,-0 0.563,-0.036 0.85,-0.108c0.293,-0.071 0.553,-0.182 0.781,-0.332c0.234,-0.149 0.423,-0.341 0.566,-0.576c0.15,-0.234 0.225,-0.514 0.225,-0.84Z" style="fill:#531a82;fill-rule:nonzero;"/><path d="M77.904,19.418l-0.683,13.301l-4.121,0.215l-0.391,-13.243l5.195,-0.273Z" style="fill:#531a82;fill-rule:nonzero;"/><path d="M90.814,28.227c0,0.735 -0.009,1.464 -0.029,2.187c-0.013,0.716 -0.036,1.439 -0.068,2.168l-5.625,-0.098c0.195,-1.152 0.364,-2.301 0.508,-3.447c0.143,-1.152 0.214,-2.314 0.214,-3.486c0,-0.085 -0.003,-0.222 -0.009,-0.41c-0.007,-0.189 -0.02,-0.401 -0.039,-0.635c-0.02,-0.241 -0.049,-0.485 -0.088,-0.733c-0.033,-0.253 -0.082,-0.485 -0.147,-0.693c-0.058,-0.208 -0.133,-0.377 -0.224,-0.508c-0.085,-0.136 -0.189,-0.205 -0.313,-0.205c-0.221,0 -0.41,0.065 -0.566,0.196c-0.15,0.13 -0.277,0.299 -0.381,0.507c-0.098,0.202 -0.176,0.43 -0.234,0.684c-0.059,0.254 -0.105,0.508 -0.137,0.762c-0.026,0.254 -0.046,0.494 -0.059,0.722c-0.006,0.222 -0.01,0.404 -0.01,0.547c-0.032,1.153 -0.058,2.298 -0.078,3.438c-0.019,1.132 -0.045,2.278 -0.078,3.437l-4.98,0.215c0.13,-2.298 0.254,-4.583 0.371,-6.855c0.123,-2.273 0.221,-4.558 0.293,-6.856l4.609,-0.234l-0.039,1.562c0.182,-0.221 0.378,-0.429 0.586,-0.625c0.215,-0.195 0.443,-0.361 0.684,-0.498c0.24,-0.143 0.494,-0.254 0.761,-0.332c0.274,-0.084 0.56,-0.127 0.86,-0.127c0.553,0 1.038,0.091 1.455,0.274c0.416,0.182 0.775,0.429 1.074,0.742c0.299,0.312 0.55,0.683 0.752,1.113c0.202,0.423 0.365,0.876 0.488,1.358c0.124,0.481 0.218,0.986 0.283,1.513c0.066,0.521 0.108,1.035 0.127,1.543c0.026,0.508 0.039,1 0.039,1.475l0,1.299Z" style="fill:#531a82;fill-rule:nonzero;"/><path d="M102.074,19.398l-0.097,4.141l-2.911,0.117l-0.351,9.063l-4.121,0.215l-0.371,-9.063l-2.911,0.156l0.118,-4.609l10.644,-0.02Z" style="fill:#531a82;fill-rule:nonzero;"/></g></g></svg>