<?xml version="1.0" encoding="UTF-8" standalone="no"?><!DOCTYPE svg PUBLIC "-//W3C//DTD SVG 1.1//EN" "http://www.w3.org/Graphics/SVG/1.1/DTD/svg11.dtd"><svg width="100%" height="100%" viewBox="0 0 26 26" version="1.1" xmlns="http://www.w3.org/2000/svg" xmlns:xlink="http://www.w3.org/1999/xlink" xml:space="preserve" xmlns:serif="http://www.serif.com/" style="fill-rule:evenodd;clip-rule:evenodd;stroke-linecap:round;stroke-linejoin:round;stroke-miterlimit:1.5;"><path d="M5.251,0.255l15.008,0c1.325,0 2.596,0.526 3.533,1.463c0.937,0.937 1.463,2.208 1.463,3.533l0,15.008c0,1.325 -0.526,2.596 -1.463,3.533c-0.937,0.937 -2.208,1.463 -3.533,1.463l-15.008,0c-1.325,0 -2.596,-0.526 -3.533,-1.463c-0.937,-0.937 -1.463,-2.208 -1.463,-3.533l0,-15.008c0,-1.325 0.526,-2.596 1.463,-3.533c0.937,-0.937 2.208,-1.463 3.533,-1.463Z" style="fill:#531a82;stroke:#fff;stroke-width:0.51px;"/><path d="M12.409,5.843c0.36,0.163 0.591,0.519 0.591,0.913l-0,12c-0,0.394 -0.231,0.75 -0.591,0.912c-0.359,0.163 -0.781,0.097 -1.075,-0.165l-4.215,-3.747l-2.119,-0c-1.103,-0 -2,-0.897 -2,-2l-0,-2c-0,-1.103 0.897,-2 2,-2l2.119,-0l4.215,-3.747c0.294,-0.262 0.716,-0.325 1.075,-0.166Z" style="fill:#7fffe0;"/><path d="M16.566,9.91l1.755,1.755l1.756,-1.755c0.3,-0.3 0.785,-0.3 1.082,-0c0.297,0.3 0.3,0.785 -0,1.082l-1.756,1.755l1.756,1.756c0.3,0.3 0.3,0.785 -0,1.082c-0.3,0.297 -0.785,0.3 -1.082,-0l-1.756,-1.756l-1.755,1.756c-0.3,0.3 -0.786,0.3 -1.082,-0c-0.297,-0.3 -0.3,-0.785 -0,-1.082l1.755,-1.756l-1.755,-1.755c-0.3,-0.3 -0.3,-0.785 -0,-1.082c0.3,-0.297 0.785,-0.3 1.082,-0Z" style="fill:#f00;"/></svg>