<?xml version="1.0" encoding="UTF-8" standalone="no"?><!DOCTYPE svg PUBLIC "-//W3C//DTD SVG 1.1//EN" "http://www.w3.org/Graphics/SVG/1.1/DTD/svg11.dtd"><svg width="100%" height="100%" viewBox="0 0 52 52" version="1.1" xmlns="http://www.w3.org/2000/svg" xmlns:xlink="http://www.w3.org/1999/xlink" xml:space="preserve" xmlns:serif="http://www.serif.com/" style="fill-rule:evenodd;clip-rule:evenodd;stroke-linecap:round;stroke-linejoin:round;stroke-miterlimit:1.5;"><g><path d="M38.5,1c3.315,-0 6.495,1.317 8.839,3.661c2.344,2.344 3.661,5.524 3.661,8.839l-0,25c0,3.315 -1.317,6.495 -3.661,8.839c-2.344,2.344 -5.524,3.661 -8.839,3.661l-25,-0c-3.315,0 -6.495,-1.317 -8.839,-3.661c-2.344,-2.344 -3.661,-5.524 -3.661,-8.839l0,-25c-0,-3.315 1.317,-6.495 3.661,-8.839c2.344,-2.344 5.524,-3.661 8.839,-3.661l25,0Z" style="fill:#7fffe0;stroke:#fff;stroke-width:2px;"/><g transform="matrix(36,0,0,36,35.2988,40.2295)"></g><text x="16.684px" y="40.229px" style="font-family:'Impact';font-stretch:condensed;font-size:36px;fill:#531a82;">S</text></g></svg>