<?xml version="1.0" encoding="UTF-8" standalone="no"?><!DOCTYPE svg PUBLIC "-//W3C//DTD SVG 1.1//EN" "http://www.w3.org/Graphics/SVG/1.1/DTD/svg11.dtd"><svg width="100%" height="100%" viewBox="0 0 26 26" version="1.1" xmlns="http://www.w3.org/2000/svg" xmlns:xlink="http://www.w3.org/1999/xlink" xml:space="preserve" xmlns:serif="http://www.serif.com/" style="fill-rule:evenodd;clip-rule:evenodd;stroke-linecap:round;stroke-linejoin:round;stroke-miterlimit:1.5;"><g><path d="M20.261,0.257c1.325,-0 2.596,0.526 3.533,1.463c0.937,0.937 1.463,2.208 1.463,3.533l-0,15.008c-0,1.325 -0.526,2.596 -1.463,3.533c-0.937,0.937 -2.208,1.463 -3.533,1.463l-15.008,-0c-1.325,-0 -2.596,-0.526 -3.533,-1.463c-0.937,-0.937 -1.463,-2.208 -1.463,-3.533l-0,-15.008c-0,-1.325 0.526,-2.596 1.463,-3.533c0.937,-0.937 2.208,-1.463 3.533,-1.463l15.008,-0Z" style="fill:#7fffe0;stroke:#fff;stroke-width:0.51px;"/><path d="M17.362,14.532c0,0.803 -0.14,1.506 -0.421,2.11c-0.276,0.597 -0.657,1.095 -1.143,1.494c-0.481,0.398 -1.046,0.697 -1.696,0.896c-0.645,0.2 -1.339,0.299 -2.083,0.299c-0.287,0 -0.604,-0.038 -0.95,-0.114c-0.339,-0.076 -0.685,-0.17 -1.037,-0.281c-0.351,-0.118 -0.691,-0.241 -1.019,-0.369c-0.322,-0.135 -0.61,-0.261 -0.862,-0.378l0.387,-3.622c0.498,0.299 1.049,0.528 1.653,0.686c0.609,0.152 1.207,0.229 1.792,0.229c0.112,-0 0.247,-0.003 0.405,-0.009c0.158,-0.012 0.307,-0.038 0.448,-0.079c0.147,-0.047 0.27,-0.115 0.369,-0.202c0.1,-0.088 0.15,-0.214 0.15,-0.378c-0,-0.112 -0.036,-0.206 -0.106,-0.282c-0.07,-0.082 -0.161,-0.146 -0.272,-0.193c-0.112,-0.053 -0.238,-0.091 -0.378,-0.114c-0.141,-0.03 -0.279,-0.05 -0.413,-0.062c-0.135,-0.012 -0.261,-0.017 -0.378,-0.017l-0.282,-0c-0.503,-0 -0.963,-0.088 -1.379,-0.264c-0.411,-0.176 -0.765,-0.419 -1.064,-0.73c-0.293,-0.316 -0.521,-0.688 -0.685,-1.116c-0.165,-0.433 -0.247,-0.902 -0.247,-1.406c0,-0.691 0.138,-1.31 0.414,-1.855c0.281,-0.55 0.653,-1.016 1.116,-1.397c0.469,-0.387 1.005,-0.683 1.608,-0.888c0.604,-0.205 1.228,-0.307 1.872,-0.307c0.287,-0 0.583,0.011 0.888,0.035c0.305,0.017 0.606,0.053 0.905,0.105c0.305,0.053 0.601,0.12 0.888,0.202c0.287,0.083 0.559,0.185 0.817,0.308l-0.334,3.568c-0.398,-0.134 -0.817,-0.246 -1.257,-0.334c-0.433,-0.093 -0.858,-0.14 -1.274,-0.14c-0.076,-0 -0.176,0.003 -0.299,0.009c-0.117,-0 -0.243,0.008 -0.378,0.026c-0.129,0.012 -0.26,0.032 -0.395,0.062c-0.135,0.029 -0.255,0.07 -0.361,0.123c-0.105,0.046 -0.19,0.111 -0.254,0.193c-0.065,0.082 -0.094,0.179 -0.088,0.29c0.006,0.129 0.052,0.234 0.14,0.316c0.094,0.077 0.211,0.138 0.352,0.185c0.146,0.041 0.305,0.07 0.474,0.088c0.176,0.017 0.349,0.029 0.519,0.035l0.475,0c0.146,-0.006 0.266,-0.003 0.36,0.009c0.469,0.029 0.891,0.129 1.266,0.299c0.375,0.17 0.691,0.395 0.949,0.676c0.263,0.282 0.463,0.619 0.597,1.011c0.141,0.387 0.211,0.815 0.211,1.283Z" style="fill:#531a82;fill-rule:nonzero;"/></g></svg>