<?xml version="1.0" encoding="UTF-8" standalone="no"?><!DOCTYPE svg PUBLIC "-//W3C//DTD SVG 1.1//EN" "http://www.w3.org/Graphics/SVG/1.1/DTD/svg11.dtd"><svg width="100%" height="100%" viewBox="0 0 26 26" version="1.1" xmlns="http://www.w3.org/2000/svg" xmlns:xlink="http://www.w3.org/1999/xlink" xml:space="preserve" xmlns:serif="http://www.serif.com/" style="fill-rule:evenodd;clip-rule:evenodd;stroke-linecap:round;stroke-linejoin:round;stroke-miterlimit:1.5;"><path d="M5.251,0.255l15.008,0c1.325,0 2.596,0.526 3.533,1.463c0.937,0.937 1.463,2.208 1.463,3.533l0,15.008c0,1.325 -0.526,2.596 -1.463,3.533c-0.937,0.937 -2.208,1.463 -3.533,1.463l-15.008,0c-1.325,0 -2.596,-0.526 -3.533,-1.463c-0.937,-0.937 -1.463,-2.208 -1.463,-3.533l0,-15.008c0,-1.325 0.526,-2.596 1.463,-3.533c0.937,-0.937 2.208,-1.463 3.533,-1.463Z" style="fill:#531a82;stroke:#fff;stroke-width:0.51px;"/><path d="M19.675,5.772c2.028,1.646 3.325,4.165 3.325,6.984c-0,2.819 -1.297,5.334 -3.325,6.984c-0.322,0.263 -0.794,0.213 -1.056,-0.109c-0.263,-0.322 -0.213,-0.794 0.109,-1.056c1.694,-1.375 2.772,-3.469 2.772,-5.819c-0,-2.35 -1.078,-4.444 -2.772,-5.822c-0.322,-0.262 -0.369,-0.734 -0.109,-1.056c0.259,-0.322 0.734,-0.369 1.056,-0.11l-0,0.004Zm-1.891,2.328c1.35,1.1 2.216,2.778 2.216,4.656c-0,1.878 -0.866,3.556 -2.216,4.656c-0.322,0.263 -0.793,0.213 -1.056,-0.109c-0.262,-0.322 -0.212,-0.794 0.11,-1.056c1.015,-0.825 1.662,-2.082 1.662,-3.491c0,-1.409 -0.647,-2.666 -1.662,-3.494c-0.322,-0.262 -0.369,-0.734 -0.11,-1.056c0.259,-0.322 0.735,-0.369 1.056,-0.109l0,0.003Zm-1.89,2.328c0.672,0.55 1.106,1.387 1.106,2.328c0,0.941 -0.434,1.778 -1.106,2.328c-0.322,0.263 -0.794,0.213 -1.057,-0.109c-0.262,-0.322 -0.212,-0.794 0.11,-1.057c0.337,-0.275 0.553,-0.693 0.553,-1.162c-0,-0.469 -0.216,-0.888 -0.553,-1.166c-0.322,-0.262 -0.369,-0.734 -0.11,-1.056c0.26,-0.322 0.735,-0.369 1.057,-0.109l-0,0.003Zm-3.485,-4.585c0.36,0.163 0.591,0.519 0.591,0.913l-0,12c-0,0.394 -0.231,0.75 -0.591,0.912c-0.359,0.163 -0.781,0.097 -1.075,-0.165l-4.215,-3.747l-2.119,-0c-1.103,-0 -2,-0.897 -2,-2l-0,-2c-0,-1.103 0.897,-2 2,-2l2.119,-0l4.215,-3.747c0.294,-0.262 0.716,-0.325 1.075,-0.166Z" style="fill:#7fffe0;fill-rule:nonzero;"/></svg>