<?xml version="1.0" encoding="UTF-8" standalone="no"?><!DOCTYPE svg PUBLIC "-//W3C//DTD SVG 1.1//EN" "http://www.w3.org/Graphics/SVG/1.1/DTD/svg11.dtd"><svg width="100%" height="100%" viewBox="0 0 76 26" version="1.1" xmlns="http://www.w3.org/2000/svg" xmlns:xlink="http://www.w3.org/1999/xlink" xml:space="preserve" xmlns:serif="http://www.serif.com/" style="fill-rule:evenodd;clip-rule:evenodd;stroke-linecap:round;stroke-linejoin:round;stroke-miterlimit:1.5;"><g><path d="M70.261,0.257c1.325,-0 2.596,0.526 3.533,1.463c0.937,0.937 1.463,2.208 1.463,3.533c-0,4.359 -0,10.649 -0,15.008c-0,1.325 -0.526,2.596 -1.463,3.533c-0.937,0.937 -2.208,1.463 -3.533,1.463c-13.635,-0 -51.373,-0 -65.008,-0c-1.325,-0 -2.596,-0.526 -3.533,-1.463c-0.937,-0.937 -1.463,-2.208 -1.463,-3.533c-0,-4.359 -0,-10.649 -0,-15.008c-0,-1.325 0.526,-2.596 1.463,-3.533c0.937,-0.937 2.208,-1.463 3.533,-1.463c13.635,-0 51.373,-0 65.008,-0Z" style="fill:#7fffe0;stroke:#fff;stroke-width:0.51px;"/><g><path d="M22.877,14.532c0,0.803 -0.141,1.506 -0.422,2.11c-0.275,0.597 -0.656,1.095 -1.142,1.494c-0.481,0.398 -1.046,0.697 -1.697,0.896c-0.644,0.2 -1.339,0.299 -2.083,0.299c-0.287,0 -0.603,-0.038 -0.949,-0.114c-0.34,-0.076 -0.685,-0.17 -1.037,-0.281c-0.352,-0.118 -0.691,-0.241 -1.02,-0.369c-0.322,-0.135 -0.609,-0.261 -0.861,-0.378l0.387,-3.622c0.498,0.299 1.049,0.528 1.652,0.686c0.61,0.152 1.207,0.229 1.793,0.229c0.111,-0 0.246,-0.003 0.404,-0.009c0.159,-0.012 0.308,-0.038 0.449,-0.079c0.146,-0.047 0.269,-0.115 0.369,-0.202c0.099,-0.088 0.149,-0.214 0.149,-0.378c0,-0.112 -0.035,-0.206 -0.105,-0.282c-0.071,-0.082 -0.161,-0.146 -0.273,-0.193c-0.111,-0.053 -0.237,-0.091 -0.378,-0.114c-0.14,-0.03 -0.278,-0.05 -0.413,-0.062c-0.134,-0.012 -0.26,-0.017 -0.378,-0.017l-0.281,-0c-0.504,-0 -0.964,-0.088 -1.38,-0.264c-0.41,-0.176 -0.764,-0.419 -1.063,-0.73c-0.293,-0.316 -0.522,-0.688 -0.686,-1.116c-0.164,-0.433 -0.246,-0.902 -0.246,-1.406c0,-0.691 0.138,-1.31 0.413,-1.855c0.281,-0.55 0.654,-1.016 1.116,-1.397c0.469,-0.387 1.005,-0.683 1.609,-0.888c0.603,-0.205 1.227,-0.307 1.872,-0.307c0.287,-0 0.583,0.011 0.888,0.035c0.304,0.017 0.606,0.053 0.905,0.105c0.305,0.053 0.6,0.12 0.888,0.202c0.287,0.083 0.559,0.185 0.817,0.308l-0.334,3.568c-0.398,-0.134 -0.817,-0.246 -1.257,-0.334c-0.433,-0.093 -0.858,-0.14 -1.274,-0.14c-0.076,-0 -0.176,0.003 -0.299,0.009c-0.117,-0 -0.243,0.008 -0.378,0.026c-0.129,0.012 -0.261,0.032 -0.396,0.062c-0.134,0.029 -0.254,0.07 -0.36,0.123c-0.105,0.046 -0.19,0.111 -0.255,0.193c-0.064,0.082 -0.094,0.179 -0.088,0.29c0.006,0.129 0.053,0.234 0.141,0.316c0.094,0.077 0.211,0.138 0.351,0.185c0.147,0.041 0.305,0.07 0.475,0.088c0.176,0.017 0.349,0.029 0.519,0.035l0.474,0c0.147,-0.006 0.267,-0.003 0.361,0.009c0.468,0.029 0.89,0.129 1.265,0.299c0.375,0.17 0.692,0.395 0.949,0.676c0.264,0.282 0.463,0.619 0.598,1.011c0.141,0.387 0.211,0.815 0.211,1.283Z" style="fill:#531a82;fill-rule:nonzero;"/><path d="M33.67,10.753c0,0.568 -0.085,1.072 -0.255,1.512c-0.17,0.439 -0.404,0.823 -0.703,1.151c-0.293,0.328 -0.639,0.607 -1.037,0.835c-0.399,0.229 -0.826,0.416 -1.283,0.563c-0.451,0.14 -0.92,0.246 -1.407,0.316c-0.486,0.064 -0.963,0.1 -1.432,0.105l-0,4.096l-4.096,0c0,-1.342 0.003,-2.678 0.009,-4.008c0.006,-1.33 0.015,-2.672 0.026,-4.025c0.012,-0.715 0.015,-1.43 0.009,-2.145c-0.006,-0.714 0.009,-1.435 0.044,-2.162c0.75,-0.222 1.5,-0.389 2.25,-0.501c0.75,-0.111 1.523,-0.167 2.32,-0.167c0.452,0 0.903,0.038 1.354,0.115c0.451,0.07 0.882,0.184 1.292,0.342c0.416,0.159 0.8,0.358 1.151,0.598c0.358,0.234 0.665,0.516 0.923,0.844c0.258,0.328 0.46,0.703 0.607,1.125c0.152,0.416 0.228,0.885 0.228,1.406Zm-3.902,0.299c-0,-0.381 -0.118,-0.677 -0.352,-0.888c-0.228,-0.217 -0.527,-0.325 -0.896,-0.325c-0.123,-0 -0.252,0.012 -0.387,0.035c-0.129,0.018 -0.252,0.041 -0.369,0.07l-0.106,2.567c0.082,0.012 0.161,0.017 0.238,0.017l0.237,0c0.211,0 0.413,-0.035 0.606,-0.105c0.2,-0.07 0.375,-0.17 0.528,-0.299c0.152,-0.135 0.272,-0.29 0.36,-0.466c0.094,-0.181 0.141,-0.383 0.141,-0.606Z" style="fill:#531a82;fill-rule:nonzero;"/><path d="M44.305,18.452l-4.36,0.563l-0.527,-1.987l-2.004,0l-0.439,1.987l-4.483,-0.44l3.498,-11.707l4.887,-0.246l3.428,11.83Zm-5.203,-4.113l-0.668,-3.059l-0.651,3.059l1.319,-0Z" style="fill:#531a82;fill-rule:nonzero;"/><path d="M52.971,6.851l-0.492,3.709c-0.17,-0.047 -0.34,-0.079 -0.51,-0.097c-0.17,-0.018 -0.34,-0.026 -0.51,-0.026c-0.434,-0 -0.847,0.058 -1.239,0.175c-0.393,0.112 -0.741,0.285 -1.046,0.519c-0.299,0.234 -0.539,0.527 -0.721,0.879c-0.176,0.351 -0.263,0.765 -0.263,1.239c-0,0.305 0.046,0.568 0.14,0.791c0.1,0.223 0.237,0.407 0.413,0.554c0.176,0.146 0.384,0.255 0.624,0.325c0.241,0.07 0.504,0.106 0.791,0.106c0.217,-0 0.443,-0.024 0.677,-0.071c0.234,-0.047 0.466,-0.108 0.694,-0.184c0.229,-0.077 0.452,-0.164 0.668,-0.264c0.217,-0.1 0.416,-0.202 0.598,-0.308l-0.352,4.131c-0.228,0.117 -0.477,0.223 -0.747,0.317c-0.263,0.087 -0.536,0.167 -0.817,0.237c-0.281,0.064 -0.562,0.114 -0.844,0.149c-0.281,0.035 -0.551,0.053 -0.808,0.053c-0.744,0 -1.439,-0.138 -2.083,-0.413c-0.645,-0.275 -1.204,-0.653 -1.679,-1.134c-0.475,-0.48 -0.85,-1.046 -1.125,-1.696c-0.27,-0.656 -0.404,-1.362 -0.404,-2.118c-0,-1.002 0.143,-1.946 0.43,-2.83c0.287,-0.891 0.709,-1.67 1.266,-2.338c0.557,-0.668 1.245,-1.196 2.065,-1.582c0.827,-0.387 1.776,-0.58 2.848,-0.58c0.404,-0 0.817,0.032 1.239,0.096c0.428,0.065 0.824,0.185 1.187,0.361Z" style="fill:#531a82;fill-rule:nonzero;"/><path d="M61.848,6.534c-0.035,0.551 -0.068,1.096 -0.097,1.635c-0.029,0.539 -0.067,1.084 -0.114,1.635l-3.727,0.193l-0.088,1.108l2.62,-0l-0.194,2.724l-2.637,0.088l-0.087,1.283l3.726,0c-0.035,0.645 -0.073,1.286 -0.114,1.925c-0.035,0.633 -0.068,1.269 -0.097,1.907l-7.576,0.176l0.281,-12.674l8.104,0Z" style="fill:#531a82;fill-rule:nonzero;"/></g></g></svg>