<?xml version="1.0" encoding="UTF-8" standalone="no"?><!DOCTYPE svg PUBLIC "-//W3C//DTD SVG 1.1//EN" "http://www.w3.org/Graphics/SVG/1.1/DTD/svg11.dtd"><svg width="100%" height="100%" viewBox="0 0 127 52" version="1.1" xmlns="http://www.w3.org/2000/svg" xmlns:xlink="http://www.w3.org/1999/xlink" xml:space="preserve" xmlns:serif="http://www.serif.com/" style="fill-rule:evenodd;clip-rule:evenodd;stroke-linecap:round;stroke-linejoin:round;stroke-miterlimit:1.5;"><path d="M121,1c1.326,0 2.598,0.527 3.536,1.464c0.937,0.938 1.464,2.21 1.464,3.536l0,40c0,1.326 -0.527,2.598 -1.464,3.536c-0.938,0.937 -2.21,1.464 -3.536,1.464l-115,0c-1.326,0 -2.598,-0.527 -3.536,-1.464c-0.937,-0.938 -1.464,-2.21 -1.464,-3.536l0,-40c0,-1.326 0.527,-2.598 1.464,-3.536c0.938,-0.937 2.21,-1.464 3.536,-1.464l115,0Z" style="fill:#7fffe0;stroke:#fff;stroke-width:2px;"/><g><g><path d="M46.186,27.973c-0,0.892 -0.157,1.673 -0.469,2.343c-0.306,0.665 -0.729,1.218 -1.27,1.661c-0.534,0.442 -1.162,0.774 -1.884,0.996c-0.717,0.221 -1.488,0.332 -2.315,0.332c-0.319,-0 -0.671,-0.043 -1.055,-0.127c-0.377,-0.085 -0.761,-0.189 -1.152,-0.313c-0.391,-0.13 -0.768,-0.267 -1.133,-0.41c-0.358,-0.15 -0.677,-0.29 -0.957,-0.42l0.43,-4.023c0.553,0.332 1.165,0.586 1.836,0.761c0.677,0.17 1.341,0.254 1.992,0.254c0.124,0 0.273,-0.003 0.449,-0.009c0.176,-0.013 0.342,-0.043 0.498,-0.088c0.163,-0.052 0.3,-0.127 0.41,-0.225c0.111,-0.098 0.166,-0.238 0.166,-0.42c0,-0.124 -0.039,-0.228 -0.117,-0.312c-0.078,-0.091 -0.179,-0.163 -0.302,-0.215c-0.124,-0.059 -0.264,-0.101 -0.42,-0.127c-0.157,-0.033 -0.31,-0.055 -0.459,-0.068c-0.15,-0.013 -0.29,-0.02 -0.42,-0.02l-0.313,0c-0.56,0 -1.071,-0.098 -1.533,-0.293c-0.456,-0.195 -0.85,-0.465 -1.182,-0.811c-0.325,-0.351 -0.579,-0.764 -0.761,-1.24c-0.183,-0.482 -0.274,-1.002 -0.274,-1.562c0,-0.768 0.153,-1.455 0.459,-2.061c0.313,-0.612 0.726,-1.129 1.24,-1.553c0.521,-0.429 1.117,-0.758 1.788,-0.986c0.67,-0.228 1.363,-0.342 2.08,-0.342c0.319,0 0.647,0.013 0.986,0.039c0.338,0.02 0.674,0.059 1.006,0.118c0.338,0.058 0.667,0.133 0.986,0.224c0.319,0.091 0.622,0.205 0.908,0.342l-0.371,3.965c-0.443,-0.15 -0.908,-0.274 -1.396,-0.371c-0.482,-0.104 -0.954,-0.156 -1.416,-0.156c-0.085,-0 -0.196,0.003 -0.332,0.009c-0.131,0 -0.271,0.01 -0.42,0.03c-0.143,0.013 -0.29,0.035 -0.44,0.068c-0.149,0.032 -0.283,0.078 -0.4,0.137c-0.117,0.052 -0.212,0.123 -0.283,0.214c-0.072,0.092 -0.104,0.199 -0.098,0.323c0.007,0.143 0.059,0.26 0.156,0.351c0.104,0.085 0.235,0.153 0.391,0.205c0.163,0.046 0.338,0.079 0.527,0.098c0.196,0.02 0.388,0.033 0.576,0.039l0.528,0c0.163,-0.006 0.296,-0.003 0.4,0.01c0.521,0.032 0.99,0.143 1.406,0.332c0.417,0.189 0.769,0.439 1.055,0.752c0.293,0.312 0.514,0.687 0.664,1.123c0.156,0.43 0.235,0.905 0.235,1.426Z" style="fill:#531a82;fill-rule:nonzero;"/><path d="M56.898,19.203l-0.097,4.141l-2.91,0.117l-0.743,9.258l-4.121,0.215l0.02,-9.258l-2.91,0.156l0.117,-4.609l10.644,-0.02Z" style="fill:#531a82;fill-rule:nonzero;"/><path d="M68.402,32.328l-4.843,0.625l-0.586,-2.207l-2.227,0l-0.488,2.207l-4.981,-0.488l3.887,-13.008l5.43,-0.273l3.808,13.144Zm-5.781,-4.57l-0.742,-3.399l-0.723,3.399l1.465,-0Z" style="fill:#531a82;fill-rule:nonzero;"/><path d="M80.053,23.754c-0,0.508 -0.046,0.97 -0.137,1.387c-0.085,0.41 -0.221,0.787 -0.41,1.132c-0.189,0.346 -0.433,0.665 -0.733,0.957c-0.299,0.293 -0.66,0.573 -1.084,0.84l2.325,4.141l-4.395,0.859l-1.504,-4.16l-1.211,0.039l-0.175,4.063l-4.2,-0c0.033,-1.485 0.062,-2.962 0.088,-4.434c0.033,-1.471 0.069,-2.949 0.108,-4.433c0.013,-0.749 0.026,-1.491 0.039,-2.227c0.013,-0.736 0.039,-1.478 0.078,-2.227c0.456,-0.169 0.905,-0.309 1.347,-0.419c0.443,-0.111 0.886,-0.196 1.329,-0.254c0.449,-0.065 0.901,-0.108 1.357,-0.127c0.462,-0.026 0.934,-0.039 1.416,-0.039c0.742,-0 1.458,0.104 2.148,0.312c0.697,0.202 1.312,0.508 1.846,0.918c0.534,0.41 0.96,0.921 1.279,1.533c0.326,0.612 0.489,1.325 0.489,2.139Zm-4.375,0.312c-0,-0.273 -0.039,-0.524 -0.117,-0.752c-0.072,-0.227 -0.183,-0.423 -0.332,-0.585c-0.144,-0.17 -0.326,-0.3 -0.547,-0.391c-0.215,-0.098 -0.469,-0.147 -0.762,-0.147c-0.13,0 -0.257,0.01 -0.381,0.03c-0.124,0.013 -0.244,0.036 -0.361,0.068l-0.157,3.633l0.235,-0c0.28,-0 0.563,-0.036 0.849,-0.108c0.293,-0.071 0.554,-0.182 0.782,-0.332c0.234,-0.149 0.423,-0.341 0.566,-0.576c0.15,-0.234 0.225,-0.514 0.225,-0.84Z" style="fill:#531a82;fill-rule:nonzero;"/><path d="M91.049,19.203l-0.098,4.141l-2.91,0.117l-0.742,9.258l-4.121,0.215l0.019,-9.258l-2.91,0.156l0.117,-4.609l10.645,-0.02Z" style="fill:#531a82;fill-rule:nonzero;"/></g></g></svg>