<?xml version="1.0" encoding="UTF-8" standalone="no"?><!DOCTYPE svg PUBLIC "-//W3C//DTD SVG 1.1//EN" "http://www.w3.org/Graphics/SVG/1.1/DTD/svg11.dtd"><svg width="100%" height="100%" viewBox="0 0 26 26" version="1.1" xmlns="http://www.w3.org/2000/svg" xmlns:xlink="http://www.w3.org/1999/xlink" xml:space="preserve" xmlns:serif="http://www.serif.com/" style="fill-rule:evenodd;clip-rule:evenodd;stroke-linecap:round;stroke-linejoin:round;stroke-miterlimit:1.5;"><path d="M5.251,0.255c0,0 15.008,0 15.008,0c1.325,0 2.596,0.526 3.533,1.463c0.937,0.937 1.463,2.208 1.463,3.533l0,15.008c0,1.325 -0.526,2.596 -1.463,3.533c-0.937,0.937 -2.208,1.463 -3.533,1.463c0,-0 -15.008,0 -15.008,0c-1.325,0 -2.596,-0.526 -3.533,-1.463c-0.937,-0.937 -1.463,-2.208 -1.463,-3.533l0,-15.008c0,-1.325 0.526,-2.596 1.463,-3.533c0.937,-0.937 2.208,-1.463 3.533,-1.463Z" style="fill:#531a82;stroke:#fff;stroke-width:0.51px;"/><path d="M16.255,12.412l4.086,0c0.404,0 0.769,0.244 0.924,0.618c0.154,0.373 0.069,0.803 -0.217,1.089c-2.226,2.227 -6.021,6.021 -7.586,7.586c-0.187,0.188 -0.442,0.293 -0.707,0.293c-0.265,0 -0.52,-0.105 -0.707,-0.293c-1.565,-1.565 -5.36,-5.359 -7.586,-7.586c-0.286,-0.286 -0.371,-0.716 -0.217,-1.089c0.155,-0.374 0.52,-0.618 0.924,-0.618c1.849,0 4.086,0 4.086,0l0,-9.486c-0,-0.265 0.105,-0.519 0.293,-0.707c0.187,-0.187 0.442,-0.293 0.707,-0.293c1.331,0 3.669,0 5,0c0.265,0 0.52,0.106 0.707,0.293c0.188,0.188 0.293,0.442 0.293,0.707c-0,2.621 -0,9.486 -0,9.486Z" style="fill:#7fffe0;"/></svg>