<?xml version="1.0" encoding="UTF-8" standalone="no"?><!DOCTYPE svg PUBLIC "-//W3C//DTD SVG 1.1//EN" "http://www.w3.org/Graphics/SVG/1.1/DTD/svg11.dtd"><svg width="100%" height="100%" viewBox="0 0 26 26" version="1.1" xmlns="http://www.w3.org/2000/svg" xmlns:xlink="http://www.w3.org/1999/xlink" xml:space="preserve" xmlns:serif="http://www.serif.com/" style="fill-rule:evenodd;clip-rule:evenodd;stroke-linecap:round;stroke-linejoin:round;stroke-miterlimit:1.5;"><path d="M5.251,0.255c0,0 15.008,0 15.008,0c1.325,0 2.596,0.526 3.533,1.463c0.937,0.937 1.463,2.208 1.463,3.533l0,15.008c0,1.325 -0.526,2.596 -1.463,3.533c-0.937,0.937 -2.208,1.463 -3.533,1.463c0,-0 -15.008,0 -15.008,0c-1.325,0 -2.596,-0.526 -3.533,-1.463c-0.937,-0.937 -1.463,-2.208 -1.463,-3.533l0,-15.008c0,-1.325 0.526,-2.596 1.463,-3.533c0.937,-0.937 2.208,-1.463 3.533,-1.463Z" style="fill:#531a82;stroke:#fff;stroke-width:0.51px;"/><path d="M9.255,11.926l-4.086,0c-0.404,0 -0.769,-0.243 -0.924,-0.617c-0.154,-0.374 -0.069,-0.804 0.217,-1.09c2.226,-2.226 6.021,-6.02 7.586,-7.586c0.187,-0.187 0.442,-0.292 0.707,-0.292c0.265,-0 0.52,0.105 0.707,0.292c1.565,1.566 5.36,5.36 7.586,7.586c0.286,0.286 0.371,0.716 0.217,1.09c-0.155,0.374 -0.52,0.617 -0.924,0.617c-1.849,0 -4.086,0 -4.086,0l-0,9.486c0,0.266 -0.105,0.52 -0.293,0.707c-0.187,0.188 -0.442,0.293 -0.707,0.293c-1.331,0 -3.669,0 -5,0c-0.265,0 -0.52,-0.105 -0.707,-0.293c-0.188,-0.187 -0.293,-0.441 -0.293,-0.707c0,-2.62 0,-9.486 0,-9.486Z" style="fill:#7fffe0;"/></svg>