<?xml version="1.0" encoding="UTF-8" standalone="no"?><!DOCTYPE svg PUBLIC "-//W3C//DTD SVG 1.1//EN" "http://www.w3.org/Graphics/SVG/1.1/DTD/svg11.dtd"><svg width="100%" height="100%" viewBox="0 0 26 26" version="1.1" xmlns="http://www.w3.org/2000/svg" xmlns:xlink="http://www.w3.org/1999/xlink" xml:space="preserve" xmlns:serif="http://www.serif.com/" style="fill-rule:evenodd;clip-rule:evenodd;stroke-linecap:round;stroke-linejoin:round;stroke-miterlimit:1.5;"><g><path d="M20.261,0.257c1.325,-0 2.596,0.526 3.533,1.463c0.937,0.937 1.463,2.208 1.463,3.533l-0,15.008c-0,1.325 -0.526,2.596 -1.463,3.533c-0.937,0.937 -2.208,1.463 -3.533,1.463l-15.008,-0c-1.325,-0 -2.596,-0.526 -3.533,-1.463c-0.937,-0.937 -1.463,-2.208 -1.463,-3.533l-0,-15.008c-0,-1.325 0.526,-2.596 1.463,-3.533c0.937,-0.937 2.208,-1.463 3.533,-1.463l15.008,-0Z" style="fill:#7fffe0;stroke:#fff;stroke-width:0.51px;"/><path d="M20.887,6.807l-2.057,12.181l-4.992,0.106l-1.072,-6.311l-1.073,5.854l-4.992,0.176l-2.074,-12.006l4.359,-0.387l0.879,7.295l1.178,-7.295l3.428,0l1.371,7.383l0.703,-7.383l4.342,0.387Z" style="fill:#531a82;fill-rule:nonzero;"/></g></svg>